<svg xmlns="http://www.w3.org/2000/svg" xmlns:xlink="http://www.w3.org/1999/xlink" width="1024" height="1024" viewBox="0 0 1024 1024">
  <defs>
    <linearGradient id="linear-gradient" y1="0.5" x2="0.984" y2="0.483" gradientUnits="objectBoundingBox">
      <stop offset="0" stop-color="#84f9b1"/>
      <stop offset="1" stop-color="#8ed5ef"/>
    </linearGradient>
    <clipPath id="clip-app_icon_4">
      <rect width="1024" height="1024"/>
    </clipPath>
  </defs>
  <g id="app_icon_4" data-name="app_icon – 4" clip-path="url(#clip-app_icon_4)">
    <rect width="1024" height="1024" fill="url(#linear-gradient)"/>
    <g id="그룹_14" data-name="그룹 14" transform="translate(2 -4.685)">
      <g id="가운데">
        <path id="패스_103" data-name="패스 103" d="M4455.279,984.85h61.989" transform="translate(-3977 -594)" fill="none" stroke="#fff" stroke-width="20"/>
        <path id="패스_104" data-name="패스 104" d="M4438.859,1137.376h61.989" transform="translate(-3960.58 -543)" fill="none" stroke="#fff" stroke-width="20"/>
        <path id="패스_105" data-name="패스 105" d="M4426.531,1254.26s32.944-22.687,67.389,0" transform="translate(-3948.252 -604.852)" fill="none" stroke="#fff" stroke-width="20"/>
      </g>
      <g id="그룹_9" data-name="그룹 9" transform="matrix(-0.966, 0.259, -0.259, -0.966, 1153.534, 1052.714)">
        <path id="패스_106" data-name="패스 106" d="M4742.121,1164.067l-67.225,67.225" transform="translate(-3974 -539)" fill="none" stroke="#fff" stroke-linecap="round" stroke-width="20"/>
        <path id="패스_107" data-name="패스 107" d="M4716.107,1164.067l-41.211,41.211" transform="translate(-3936.727 -506.277)" fill="none" stroke="#fff" stroke-linecap="round" stroke-width="20"/>
      </g>
      <g id="그룹_12" data-name="그룹 12">
        <g id="타원_2" data-name="타원 2" transform="translate(137 452)" fill="none" stroke="#fff" stroke-width="20">
          <circle cx="175.5" cy="175.5" r="175.5" stroke="none"/>
          <circle cx="175.5" cy="175.5" r="165.5" fill="none"/>
        </g>
        <g id="타원_6" data-name="타원 6" transform="translate(176 491)" fill="none" stroke="#fff" stroke-width="20">
          <circle cx="136.5" cy="136.5" r="136.5" stroke="none"/>
          <circle cx="136.5" cy="136.5" r="126.5" fill="none"/>
        </g>
        <path id="패스_108" data-name="패스 108" d="M4287.545,1105.793s86.444-213.384,107.908-240.879,54.759-51.248,120.6-39.09,89.678,57.213,93.152,81.244,0,263.206,0,263.206" transform="translate(-4130 -539)" fill="none" stroke="#fff" stroke-linecap="round" stroke-linejoin="round" stroke-width="20"/>
        <path id="패스_109" data-name="패스 109" d="M4442.5,825.9s18.268-71.173,96.416-53.346,55.128,96.642,55.128,96.642" transform="translate(-4130 -539)" fill="none" stroke="#fff" stroke-width="20"/>
      </g>
      <g id="그룹_13" data-name="그룹 13" transform="translate(533 230.685)">
        <g id="타원_2-2" data-name="타원 2" transform="translate(0 221.315)" fill="none" stroke="#fff" stroke-width="20">
          <circle cx="175.5" cy="175.5" r="175.5" stroke="none"/>
          <circle cx="175.5" cy="175.5" r="165.5" fill="none"/>
        </g>
        <g id="타원_6-2" data-name="타원 6" transform="translate(39 260.315)" fill="none" stroke="#fff" stroke-width="20">
          <circle cx="136.5" cy="136.5" r="136.5" stroke="none"/>
          <circle cx="136.5" cy="136.5" r="126.5" fill="none"/>
        </g>
        <path id="패스_108-2" data-name="패스 108" d="M4610.752,1105.793s-86.444-213.384-107.908-240.879-54.759-51.248-120.6-39.09-89.678,57.213-93.152,81.244,0,263.206,0,263.206" transform="translate(-4280.297 -769.685)" fill="none" stroke="#fff" stroke-linecap="round" stroke-linejoin="round" stroke-width="20"/>
        <path id="패스_109-2" data-name="패스 109" d="M4597.209,825.9s-18.268-71.173-96.416-53.346-55.128,96.642-55.128,96.642" transform="translate(-4421.709 -769.685)" fill="none" stroke="#fff" stroke-width="20"/>
      </g>
    </g>
  </g>
</svg>
