<svg xmlns="http://www.w3.org/2000/svg" xmlns:xlink="http://www.w3.org/1999/xlink" width="80" height="80" viewBox="0 0 80 80">
  <defs>
    <clipPath id="clip-ic_gallery">
      <rect width="80" height="80"/>
    </clipPath>
  </defs>
  <g id="ic_gallery" clip-path="url(#clip-ic_gallery)">
    <rect width="80" height="80" fill="none" stroke="none"/>
    <rect id="사각형_11" data-name="사각형 11" width="80" height="80" fill="none" stroke="none"/>
    <path id="패스_17" data-name="패스 17" d="M48.144,0H55V39H0V31.018" transform="translate(19 27)" fill="none" stroke-width="2"/>
    <path id="패스_16" data-name="패스 16" d="M0,29.276V37H54V0H46.17" transform="translate(13 21)" fill="none" stroke-width="2"/>
    <g id="사각형_8" data-name="사각형 8" transform="translate(6 14)" fill="none" stroke-width="2">
      <rect width="54" height="37" stroke="none"/>
      <rect x="1" y="1" width="52" height="35" fill="none"/>
    </g>
    <path id="합치기_4" data-name="합치기 4" d="M13.4-268.836,0-249.616l13.4-19.22L13.29-269l.114.164.114-.164-.114.164L32.611-241.3Z" transform="translate(7.076 291.032)" fill="none" stroke-width="2"/>
    <path id="합치기_2" data-name="합치기 2" d="M5.1-268.836,0-261.516l5.1-7.32L4.99-269l.114.164L5.219-269l-.114.164L17.4-251.2Z" transform="translate(32.5 301.516)" fill="none" stroke-width="2"/>
    <g id="타원_1" data-name="타원 1" transform="translate(42 22)" fill="none" stroke-width="2">
      <circle cx="4" cy="4" r="4" stroke="none"/>
      <circle cx="4" cy="4" r="3" fill="none"/>
    </g>
    <path id="합치기_3" data-name="합치기 3" d="M10.573-268.837,10.459-269l.114.163.114-.163-.114.163,2.8,4.021-2.8-4.021L0-253.676Z" transform="translate(45.542 298.032)" fill="none" stroke-width="2"/>
  </g>
</svg>
