<svg width="82" height="30" viewBox="0 0 124 30" xmlns="http://www.w3.org/2000/svg">
<path d="M12.372 29.576C10.068 29.576 8.028 29.156 6.252 28.316C4.476 27.452 3.084 26.264 2.076 24.752C1.092 23.24 0.6 21.512 0.6 19.568V2.756C0.6 2.204 0.78 1.76 1.14 1.424C1.5 1.064 1.944 0.883999 2.472 0.883999C3.024 0.883999 3.468 1.064 3.804 1.424C4.164 1.76 4.344 2.204 4.344 2.756V19.568C4.344 20.864 4.68 22.016 5.352 23.024C6.048 24.008 6.996 24.788 8.196 25.364C9.42 25.916 10.812 26.192 12.372 26.192C13.884 26.192 15.216 25.916 16.368 25.364C17.544 24.788 18.456 24.008 19.104 23.024C19.776 22.016 20.112 20.864 20.112 19.568V2.756C20.112 2.204 20.292 1.76 20.652 1.424C21.012 1.064 21.456 0.883999 21.984 0.883999C22.536 0.883999 22.98 1.064 23.316 1.424C23.652 1.76 23.82 2.204 23.82 2.756V19.568C23.82 21.512 23.328 23.24 22.344 24.752C21.384 26.264 20.04 27.452 18.312 28.316C16.584 29.156 14.604 29.576 12.372 29.576ZM32.3422 29C31.8142 29 31.3702 28.82 31.0102 28.46C30.6502 28.1 30.4702 27.656 30.4702 27.128V2.756C30.4702 2.204 30.6502 1.76 31.0102 1.424C31.3702 1.064 31.8142 0.883999 32.3422 0.883999H38.8582C40.9222 0.883999 42.7942 1.232 44.4742 1.928C46.1782 2.6 47.6542 3.572 48.9022 4.844C50.1502 6.092 51.1102 7.568 51.7822 9.272C52.4542 10.976 52.7902 12.86 52.7902 14.924C52.7902 16.988 52.4542 18.884 51.7822 20.612C51.1102 22.316 50.1502 23.804 48.9022 25.076C47.6542 26.324 46.1782 27.296 44.4742 27.992C42.7942 28.664 40.9222 29 38.8582 29H32.3422ZM34.2142 25.688H38.8582C40.8742 25.688 42.6502 25.232 44.1862 24.32C45.7462 23.384 46.9702 22.112 47.8582 20.504C48.7462 18.872 49.1902 17.012 49.1902 14.924C49.1902 12.812 48.7462 10.952 47.8582 9.344C46.9702 7.736 45.7462 6.476 44.1862 5.564C42.6502 4.652 40.8742 4.196 38.8582 4.196H34.2142V25.688ZM59.9975 29C59.4695 29 59.0255 28.82 58.6655 28.46C58.3055 28.1 58.1255 27.656 58.1255 27.128V2.756C58.1255 2.204 58.3055 1.76 58.6655 1.424C59.0255 1.064 59.4695 0.883999 59.9975 0.883999C60.5495 0.883999 60.9935 1.064 61.3295 1.424C61.6895 1.76 61.8695 2.204 61.8695 2.756V27.128C61.8695 27.656 61.6895 28.1 61.3295 28.46C60.9935 28.82 60.5495 29 59.9975 29ZM81.1191 29.36C79.1751 29.36 77.3511 29 75.6471 28.28C73.9671 27.536 72.4911 26.516 71.2191 25.22C69.9711 23.9 68.9871 22.364 68.2671 20.612C67.5711 18.86 67.2231 16.964 67.2231 14.924C67.2231 12.908 67.5711 11.036 68.2671 9.308C68.9871 7.556 69.9711 6.032 71.2191 4.736C72.4911 3.416 73.9671 2.384 75.6471 1.64C77.3271 0.895999 79.1511 0.524 81.1191 0.524C82.9671 0.524 84.5511 0.763999 85.8711 1.244C87.2151 1.724 88.5591 2.516 89.9031 3.62C90.0951 3.764 90.2391 3.92 90.3351 4.088C90.4551 4.232 90.5271 4.388 90.5511 4.556C90.5991 4.7 90.6231 4.88 90.6231 5.096C90.6231 5.552 90.4551 5.936 90.1191 6.248C89.8071 6.56 89.4111 6.728 88.9311 6.752C88.4751 6.776 88.0431 6.62 87.6351 6.284C86.7471 5.516 85.8231 4.928 84.8631 4.52C83.9271 4.112 82.6791 3.908 81.1191 3.908C79.7031 3.908 78.3711 4.196 77.1231 4.772C75.8751 5.348 74.7711 6.14 73.8111 7.148C72.8751 8.156 72.1431 9.332 71.6151 10.676C71.0871 11.996 70.8231 13.412 70.8231 14.924C70.8231 16.46 71.0871 17.9 71.6151 19.244C72.1431 20.564 72.8751 21.728 73.8111 22.736C74.7711 23.744 75.8751 24.536 77.1231 25.112C78.3711 25.664 79.7031 25.94 81.1191 25.94C82.3431 25.94 83.4951 25.736 84.5751 25.328C85.6791 24.896 86.7351 24.308 87.7431 23.564C88.1751 23.252 88.5951 23.12 89.0031 23.168C89.4351 23.192 89.7951 23.36 90.0831 23.672C90.3711 23.96 90.5151 24.368 90.5151 24.896C90.5151 25.136 90.4671 25.376 90.3711 25.616C90.2991 25.832 90.1551 26.036 89.9391 26.228C88.6671 27.284 87.2871 28.076 85.7991 28.604C84.3111 29.108 82.7511 29.36 81.1191 29.36ZM90.5151 24.896L86.9151 24.176V17.732H81.9471C81.4191 17.732 80.9751 17.576 80.6151 17.264C80.2551 16.952 80.0751 16.556 80.0751 16.076C80.0751 15.596 80.2551 15.2 80.6151 14.888C80.9751 14.576 81.4191 14.42 81.9471 14.42H88.6791C89.2311 14.42 89.6751 14.6 90.0111 14.96C90.3471 15.296 90.5151 15.74 90.5151 16.292V24.896ZM108.959 29.36C106.847 29.36 104.915 29.012 103.163 28.316C101.411 27.596 99.8994 26.6 98.6274 25.328C97.3794 24.032 96.4074 22.508 95.7114 20.756C95.0154 18.98 94.6674 17.036 94.6674 14.924C94.6674 12.812 95.0154 10.88 95.7114 9.128C96.4074 7.376 97.3794 5.864 98.6274 4.592C99.8994 3.296 101.411 2.3 103.163 1.604C104.915 0.883999 106.847 0.524 108.959 0.524C111.071 0.524 112.991 0.883999 114.719 1.604C116.471 2.3 117.983 3.296 119.255 4.592C120.527 5.864 121.511 7.376 122.207 9.128C122.903 10.88 123.251 12.812 123.251 14.924C123.251 17.036 122.903 18.98 122.207 20.756C121.511 22.508 120.527 24.032 119.255 25.328C117.983 26.6 116.471 27.596 114.719 28.316C112.991 29.012 111.071 29.36 108.959 29.36ZM108.959 25.976C110.519 25.976 111.947 25.7 113.243 25.148C114.563 24.572 115.703 23.792 116.663 22.808C117.623 21.8 118.355 20.624 118.859 19.28C119.387 17.936 119.651 16.484 119.651 14.924C119.651 13.364 119.387 11.912 118.859 10.568C118.355 9.224 117.623 8.06 116.663 7.076C115.703 6.068 114.563 5.288 113.243 4.736C111.947 4.184 110.519 3.908 108.959 3.908C107.399 3.908 105.959 4.184 104.639 4.736C103.343 5.288 102.215 6.068 101.255 7.076C100.319 8.06 99.5874 9.224 99.0594 10.568C98.5314 11.912 98.2674 13.364 98.2674 14.924C98.2674 16.484 98.5314 17.936 99.0594 19.28C99.5874 20.624 100.319 21.8 101.255 22.808C102.215 23.792 103.343 24.572 104.639 25.148C105.959 25.7 107.399 25.976 108.959 25.976Z"/>
</svg>
